<svg xmlns="http://www.w3.org/2000/svg" version="1.1" xmlns:xlink="http://www.w3.org/1999/xlink" xmlns:svgjs="http://svgjs.dev/svgjs" viewBox="0 0 800 800"><defs><radialGradient id="ccclaymoji-grad-dark" r="93%" cx="20%" cy="20%">
      <stop offset="70%" stop-color="hsl(230, 53%, 57%)" stop-opacity="0"></stop>
      <stop offset="97%" stop-color="#194199" stop-opacity="1"></stop>
    </radialGradient><radialGradient id="ccclaymoji-grad-light" r="65%" cx="28%" cy="20%">
    <stop offset="0%" stop-color="#8b99ff" stop-opacity="0.75"></stop>
    <stop offset="100%" stop-color="hsl(230, 53%, 57%)" stop-opacity="0"></stop>
  </radialGradient><filter id="ccclaymoji-blur" x="-100%" y="-100%" width="400%" height="400%" filterUnits="objectBoundingBox" primitiveUnits="userSpaceOnUse" color-interpolation-filters="sRGB">
	<feGaussianBlur stdDeviation="30" x="0%" y="0%" width="100%" height="100%" in="SourceGraphic" edgeMode="none" result="blur"></feGaussianBlur></filter><filter id="inner-blur" x="-100%" y="-100%" width="400%" height="400%" filterUnits="objectBoundingBox" primitiveUnits="userSpaceOnUse" color-interpolation-filters="sRGB">
	<feGaussianBlur stdDeviation="2" x="0%" y="0%" width="100%" height="100%" in="SourceGraphic" edgeMode="none" result="blur"></feGaussianBlur></filter><filter id="eye-shadow" x="-100%" y="-100%" width="400%" height="400%" filterUnits="objectBoundingBox" primitiveUnits="userSpaceOnUse" color-interpolation-filters="sRGB">
	<feDropShadow stdDeviation="10" dx="10" dy="10" flood-color="#000000" flood-opacity="0.2" x="0%" y="0%" width="100%" height="100%" result="dropShadow"></feDropShadow>
</filter><linearGradient gradientTransform="rotate(-25)" id="eye-light" x1="50%" y1="0%" x2="50%" y2="100%">
      <stop offset="20%" stop-color="#555555" stop-opacity="1"></stop>
      <stop offset="100%" stop-color="black" stop-opacity="0"></stop>
    </linearGradient><linearGradient id="mouth-light" x1="50%" y1="0%" x2="50%" y2="100%">
    <stop offset="0%" stop-color="#ff8bff" stop-opacity="1"></stop>
    <stop offset="100%" stop-color="hsla(272, 99%, 54%, 1)" stop-opacity="0"></stop>
  </linearGradient><filter id="mouth-shadow" x="-100%" y="-100%" width="400%" height="400%" filterUnits="objectBoundingBox" primitiveUnits="userSpaceOnUse" color-interpolation-filters="sRGB">
	<feDropShadow stdDeviation="10" dx="10" dy="10" flood-color="#5700c9" flood-opacity="0.2" x="0%" y="0%" width="100%" height="100%" result="dropShadow"></feDropShadow>
</filter></defs><g stroke-linecap="round" transform="rotate(337, 400, 400)"><path d="M650 449.99998478233977C650 602.9582058065985 552.9582210242588 726.9541626799139 400 726.9541626799139C247.04245283018867 726.9541626799139 150 602.9582058065985 150 449.99998478233977C150 297.04243761252843 247.04245283018867 173.04580688476562 400 173.04580688476562C552.9582210242588 173.04580688476562 650 297.04243761252843 650 449.99998478233977Z " fill="#194199" opacity="0.25" filter="url(#ccclaymoji-blur)"></path><path d="M650 399.999996348324C650 561.6737855221131 561.6737891737891 692.7350390833667 400 692.7350390833667C238.3269230769231 692.7350390833667 150 561.6737855221131 150 399.999996348324C150 238.32691942524704 238.3269230769231 107.26495361328125 400 107.26495361328125C561.6737891737891 107.26495361328125 650 238.32691942524704 650 399.999996348324Z " fill="hsl(230, 53%, 57%)"></path><path d="M650 399.999996348324C650 561.6737855221131 561.6737891737891 692.7350390833667 400 692.7350390833667C238.3269230769231 692.7350390833667 150 561.6737855221131 150 399.999996348324C150 238.32691942524704 238.3269230769231 107.26495361328125 400 107.26495361328125C561.6737891737891 107.26495361328125 650 238.32691942524704 650 399.999996348324Z " fill="url(#ccclaymoji-grad-dark)"></path><path d="M650 399.999996348324C650 561.6737855221131 561.6737891737891 692.7350390833667 400 692.7350390833667C238.3269230769231 692.7350390833667 150 561.6737855221131 150 399.999996348324C150 238.32691942524704 238.3269230769231 107.26495361328125 400 107.26495361328125C561.6737891737891 107.26495361328125 650 238.32691942524704 650 399.999996348324Z " fill="url(#ccclaymoji-grad-light)"></path><ellipse rx="38.5" ry="37.5" cx="341" cy="322" fill="black" filter="url(#eye-shadow)"></ellipse><ellipse rx="38.5" ry="37.5" cx="341" cy="322" fill="url(#eye-light)" filter="url(#inner-blur)"></ellipse><ellipse rx="23" ry="21" cx="500" cy="374" fill="black" filter="url(#eye-shadow)"></ellipse><ellipse rx="23" ry="21" cx="500" cy="374" fill="url(#eye-light)" filter="url(#inner-blur)"></ellipse><path d="M346 543Q391 471 460 543 " stroke-width="16" stroke="hsla(272, 99%, 54%, 1)" fill="none" filter="url(#mouth-shadow)" transform="rotate(22, 400, 400)"></path><path d="M346 543Q391 471 460 543 " stroke-width="5.333333333333333" stroke="url(#mouth-light)" fill="none" filter="url(#inner-blur)" transform="rotate(22, 400, 400)"></path></g></svg>