<svg xmlns="http://www.w3.org/2000/svg" version="1.1" xmlns:xlink="http://www.w3.org/1999/xlink" xmlns:svgjs="http://svgjs.dev/svgjs" viewBox="0 0 800 800"><defs><radialGradient id="ccclaymoji-grad-dark" r="93%" cx="20%" cy="20%">
      <stop offset="70%" stop-color="hsl(50, 98%, 50%)" stop-opacity="0"></stop>
      <stop offset="97%" stop-color="#c4a200" stop-opacity="1"></stop>
    </radialGradient><radialGradient id="ccclaymoji-grad-light" r="65%" cx="28%" cy="20%">
    <stop offset="0%" stop-color="#ffff52" stop-opacity="0.75"></stop>
    <stop offset="100%" stop-color="hsl(50, 98%, 50%)" stop-opacity="0"></stop>
  </radialGradient><filter id="ccclaymoji-blur" x="-100%" y="-100%" width="400%" height="400%" filterUnits="objectBoundingBox" primitiveUnits="userSpaceOnUse" color-interpolation-filters="sRGB">
	<feGaussianBlur stdDeviation="30" x="0%" y="0%" width="100%" height="100%" in="SourceGraphic" edgeMode="none" result="blur"></feGaussianBlur></filter><filter id="inner-blur" x="-100%" y="-100%" width="400%" height="400%" filterUnits="objectBoundingBox" primitiveUnits="userSpaceOnUse" color-interpolation-filters="sRGB">
	<feGaussianBlur stdDeviation="2" x="0%" y="0%" width="100%" height="100%" in="SourceGraphic" edgeMode="none" result="blur"></feGaussianBlur></filter><filter id="eye-shadow" x="-100%" y="-100%" width="400%" height="400%" filterUnits="objectBoundingBox" primitiveUnits="userSpaceOnUse" color-interpolation-filters="sRGB">
	<feDropShadow stdDeviation="10" dx="10" dy="10" flood-color="#000000" flood-opacity="0.2" x="0%" y="0%" width="100%" height="100%" result="dropShadow"></feDropShadow>
</filter><linearGradient gradientTransform="rotate(-25)" id="eye-light" x1="50%" y1="0%" x2="50%" y2="100%">
      <stop offset="20%" stop-color="#555555" stop-opacity="1"></stop>
      <stop offset="100%" stop-color="black" stop-opacity="0"></stop>
    </linearGradient><linearGradient id="mouth-light" x1="50%" y1="0%" x2="50%" y2="100%">
    <stop offset="0%" stop-color="#9e9e9e" stop-opacity="1"></stop>
    <stop offset="100%" stop-color="hsla(0, 0%, 27%, 1)" stop-opacity="0"></stop>
  </linearGradient><filter id="mouth-shadow" x="-100%" y="-100%" width="400%" height="400%" filterUnits="objectBoundingBox" primitiveUnits="userSpaceOnUse" color-interpolation-filters="sRGB">
	<feDropShadow stdDeviation="10" dx="10" dy="10" flood-color="#1e1e1e" flood-opacity="0.2" x="0%" y="0%" width="100%" height="100%" result="dropShadow"></feDropShadow>
</filter></defs><g stroke-linecap="round" transform="rotate(337, 400, 400)"><path d="M650 450.00000405860374C650 595.1342751583479 545.1342710997442 712.78772784377 400 712.78772784377C254.866368286445 712.78772784377 150 595.1342751583479 150 450.00000405860374C150 304.8663723450487 254.866368286445 187.2122802734375 400 187.2122802734375C545.1342710997442 187.2122802734375 650 304.8663723450487 650 450.00000405860374Z " fill="#c4a200" opacity="0.25" filter="url(#ccclaymoji-blur)"></path><circle r="250" cx="400" cy="400" fill="hsl(50, 98%, 50%)"></circle><circle r="250" cx="400" cy="400" fill="url(#ccclaymoji-grad-dark)"></circle><circle r="250" cx="400" cy="400" fill="url(#ccclaymoji-grad-light)"></circle><ellipse rx="23.5" ry="25" cx="323" cy="303" fill="black" filter="url(#eye-shadow)"></ellipse><ellipse rx="23.5" ry="25" cx="323" cy="303" fill="url(#eye-light)" filter="url(#inner-blur)"></ellipse><ellipse rx="23.5" ry="25" cx="484" cy="353" fill="black" filter="url(#eye-shadow)"></ellipse><ellipse rx="23.5" ry="25" cx="484" cy="353" fill="url(#eye-light)" filter="url(#inner-blur)"></ellipse><path d="M346 542.5Q417 472.5 460 542.5 " stroke-width="14" stroke="hsla(0, 0%, 27%, 1)" fill="none" filter="url(#mouth-shadow)" transform="rotate(22, 400, 400)"></path><path d="M346 542.5Q417 472.5 460 542.5 " stroke-width="4.666666666666667" stroke="url(#mouth-light)" fill="none" filter="url(#inner-blur)" transform="rotate(22, 400, 400)"></path></g></svg>