<svg xmlns="http://www.w3.org/2000/svg" version="1.1" xmlns:xlink="http://www.w3.org/1999/xlink" viewBox="0 0 700 700" style="overflow: hidden; display: block;" width="700" height="700"><defs><linearGradient id="two-3" x1="350" y1="-350" x2="350" y2="350" spreadMethod="pad" gradientUnits="userSpaceOnUse"><stop offset="0%" stop-color="hsl(162, 100%, 58%)" stop-opacity="1"></stop><stop offset="100%" stop-color="hsl(270, 73%, 53%)" stop-opacity="1"></stop></linearGradient></defs><g id="two-0" transform="matrix(1 0 0 1 0 0)" opacity="1"><path transform="matrix(1 0 0 1 350 350)" id="two-33" d="M 164.45048 29.843362 C 150.976687 36.189439 124.803516 31.211641 122.266816 45.887503 C 114.391351 91.450329 250.855177 96.068554 228.912235 136.768693 C 211.214497 169.594755 157.104471 111.815263 120.404095 105.19389 C 107.768021 102.914126 89.642736 92.314396 81.600736 102.324087 C 57.608991 132.186057 132.236146 179.363899 114.901748 213.523228 C 108.433977 226.268679 86.711895 221.307151 74.079321 227.992707 C 59.866446 235.514608 50.051384 261.875283 34.787897 256.814574 C -8.372488 242.504467 36.979631 140.990236 -5.617414 125.08144 C -15.365608 121.440765 -24.985948 134.446329 -32.361842 141.786491 C -70.663359 179.902459 -68.725783 262.545056 -119.781168 280.241971 C -137.263037 286.30157 -165.647623 278.661507 -172.633643 261.528789 C -195.718073 204.915862 -49.98272 140.519479 -91.023818 95.203449 C -110.479523 73.721194 -157.01728 149.886879 -173.306476 125.914524 C -192.07386 98.29509 -97.6141 83.253703 -105.499037 50.805658 C -108.268398 39.409203 -127.363937 41.048732 -138.76456 38.296585 C -179.499571 28.463022 -240.422688 57.839154 -264.92464 23.843649 C -274.15304 11.039604 -251.438826 -7.594229 -255.061567 -22.955957 C -260.935737 -47.86455 -315.889187 -61.431483 -303.274811 -83.69853 C -274.035771 -135.311633 -155.069227 -9.056875 -125.057278 -60.224411 C -111.129346 -83.970217 -160.272598 -103.793554 -174.931527 -127.095194 C -199.420671 -166.022815 -267.149096 -213.765827 -239.564583 -250.564909 C -222.307224 -273.587065 -182.202434 -239.493354 -154.07874 -233.419314 C -134.122453 -229.109236 -111.607947 -229.460407 -93.804621 -219.466821 C -70.375356 -206.315213 -63.057816 -155.533571 -36.819113 -161.315072 C -11.55364 -166.882128 -26.497294 -214.804399 -10.562216 -235.185996 C 0.800871 -249.719834 18.133623 -261.628739 36.040946 -266.064953 C 51.758226 -269.958623 73.320959 -272.544656 84.866147 -261.191147 C 105.009572 -241.382154 73.964483 -195.243467 94.794579 -176.157847 C 105.664848 -166.19794 124.715505 -175.30056 139.45237 -174.867742 C 158.821814 -174.298866 180.024125 -179.976198 198.146819 -173.115663 C 213.517783 -167.296825 234.634535 -157.599093 236.433314 -141.26233 C 239.808203 -110.611111 201.297409 -88.935576 179.323671 -67.3013 C 161.297039 -49.553154 112.539851 -46.117723 117.92612 -21.400436 C 125.0444 11.264962 211.885934 -33.046371 216.949091 -0.000001 C 219.967131 19.698233 182.478972 21.352048 164.45048 29.843362 Z " fill="url(#two-3)" stroke="undefined" stroke-width="1" stroke-opacity="1" fill-opacity="1" visibility="visible" stroke-linecap="butt" stroke-linejoin="miter" stroke-miterlimit="4"></path></g></svg>