<svg xmlns="http://www.w3.org/2000/svg" version="1.1" xmlns:xlink="http://www.w3.org/1999/xlink" viewBox="0 0 700 700" style="overflow: hidden; display: block;" width="700" height="700"><defs><linearGradient id="two-3" x1="350" y1="-350" x2="350" y2="350" spreadMethod="pad" gradientUnits="userSpaceOnUse"><stop offset="0%" stop-color="hsl(70, 69%, 60%)" stop-opacity="1"></stop><stop offset="100%" stop-color="hsl(70, 69%, 80%)" stop-opacity="1"></stop></linearGradient></defs><g id="two-0" transform="matrix(1 0 0 1 0 0)" opacity="1"><path transform="matrix(1 0 0 1 350 350)" id="two-29" d="M 143.889703 26.112131 C 137.271143 77.242913 259.19339 57.053469 278.929253 104.683899 C 285.922228 121.56071 272.678399 141.727854 264.794202 158.20717 C 256.922442 174.660489 244.326063 189.246542 232.040343 202.727542 C 219.793153 216.166263 208.642596 235.495761 190.872964 239.347126 C 165.728995 244.796795 141.082788 223.539164 116.395014 216.29818 C 99.740728 211.413438 80.046293 212.033417 65.713603 202.245674 C 44.453213 187.72703 42.974346 149.03213 18.938398 139.808875 C 10.948053 136.74276 0.041861 139.322133 -6.504546 144.834957 C -52.796002 183.817668 -11.655168 314.120759 -72.142548 316.077154 C -97.908322 316.910519 -101.960533 270.719502 -104.757537 245.09244 C -109.467804 201.93544 -39.855375 139.133426 -76.912607 116.517618 C -135.728038 80.622911 -180.748093 287.180475 -238.191731 249.129018 C -265.986621 230.7173 -224.704925 181.939823 -209.547129 152.2449 C -194.089272 121.962141 -152.556044 104.115666 -146.664862 70.630074 C -145.0016 61.17606 -148.268944 49.238823 -155.488081 42.911983 C -182.641014 19.115197 -259.454808 59.598698 -263.194934 23.687972 C -266.729205 -10.246254 -198.240623 -0.589962 -167.343936 -15.061227 C -154.345718 -21.14928 -139.319368 -25.62115 -129.005518 -35.603261 C -123.322819 -41.103179 -116.061546 -48.493565 -117.003019 -56.345685 C -122.112483 -98.959904 -231.526705 -115.170689 -206.907493 -150.327093 C -184.366824 -182.515322 -126.036271 -74.96341 -97.901363 -102.396798 C -66.967037 -132.559804 -144.150414 -180.470037 -147.558262 -223.541211 C -149.656854 -250.064945 -146.285011 -281.719123 -129.09124 -302.023969 C -116.396518 -317.0157 -92.480449 -332.173654 -74.184077 -325.021678 C -25.347381 -305.931617 -58.828048 -193.815885 -8.10707 -180.517926 C 6.153016 -176.779235 14.688401 -200.49792 28.013528 -206.804173 C 41.208397 -213.04878 57.396472 -223.697946 70.819722 -217.960695 C 85.560406 -211.660358 79.786845 -181.996179 94.450143 -175.517779 C 111.818491 -167.844259 132.167925 -183.599513 150.464536 -188.676561 C 185.041445 -198.271159 232.464767 -250.615769 253.998509 -221.911816 C 282.113344 -184.435427 195.294195 -146.266196 174.522758 -104.272495 C 167.67255 -90.423401 151.380098 -72.98323 159.593319 -59.896375 C 177.381771 -31.552453 243.964624 -76.479655 260.202443 -47.219782 C 268.529333 -32.215073 251.501494 -11.108196 238.421495 -0.000001 C 213.753171 20.949587 148.044324 -5.983828 143.889703 26.112131 Z " fill="url(#two-3)" stroke="undefined" stroke-width="1" stroke-opacity="1" fill-opacity="1" visibility="visible" stroke-linecap="butt" stroke-linejoin="miter" stroke-miterlimit="4"></path></g></svg>