<svg xmlns="http://www.w3.org/2000/svg" version="1.1" xmlns:xlink="http://www.w3.org/1999/xlink" viewBox="0 0 700 700" style="overflow: hidden; display: block;" width="700" height="700"><defs><linearGradient id="two-3" x1="350" y1="-350" x2="350" y2="350" spreadMethod="pad" gradientUnits="userSpaceOnUse"><stop offset="0%" stop-color="hsl(305, 77%, 50%)" stop-opacity="1"></stop><stop offset="100%" stop-color="hsl(305, 77%, 80%)" stop-opacity="1"></stop></linearGradient></defs><g id="two-0" transform="matrix(1 0 0 1 0 0)" opacity="1"><path transform="matrix(1 0 0 1 350 350)" id="two-35" d="M 131.451389 23.85491 C 126.487901 30.146232 125.218764 40.052021 127.321832 47.784682 C 133.806889 71.629258 161.046997 85.04514 175.675051 104.960957 C 200.832197 139.21193 274.969937 183.969751 244.627962 213.725014 C 200.252199 257.2427 136.955556 72.073223 87.557457 109.793579 C 49.918877 138.534375 140.584492 199.452466 132.433594 246.102856 C 129.016556 265.65974 115.068525 295.857098 95.357986 293.481704 C 32.11914 285.860544 79.280145 110.977929 15.925165 117.564296 C -24.682624 121.785871 14.245953 206.066623 -10.70571 238.381152 C -21.913627 252.896358 -44.366162 272.962017 -60.183787 263.682397 C -92.393492 244.786147 -37.587088 176.622507 -64.368602 150.597829 C -72.616346 142.583163 -88.016871 147.697591 -99.217216 150.307656 C -130.068078 157.496964 -154.245089 185.726027 -184.964512 193.457711 C -211.995197 200.260987 -253.249187 218.448249 -269.399658 195.730307 C -285.896703 172.524858 -255.718272 137.985922 -238.870395 115.033919 C -214.94886 82.445412 -130.220722 77.841145 -142.55042 39.341415 C -162.160307 -21.890854 -330.876407 94.332725 -337.178169 30.346584 C -343.171889 -30.511794 -164.373631 46.584799 -157.289686 -14.156328 C -152.005639 -59.464276 -252.939367 -40.789669 -280.231749 -77.339049 C -292.967268 -94.394187 -298.363306 -120.343618 -292.206389 -140.71918 C -286.619733 -159.207531 -270.390606 -179.586437 -251.311346 -182.588381 C -194.310762 -191.556891 -137.814894 -60.65278 -96.626077 -101.062953 C -46.44931 -150.291165 -245.51781 -245.408081 -192.327379 -291.363524 C -162.79772 -316.876545 -133.502051 -214.537875 -95.510797 -223.458617 C -74.424395 -228.409923 -78.962605 -265.308843 -64.165225 -281.126216 C -50.79244 -295.420797 -31.96232 -320.755329 -14.050562 -312.860057 C 41.196669 -288.507793 -41.669372 -142.073147 17.979127 -132.727246 C 63.365084 -125.616043 38.662103 -267.403172 83.103454 -255.766134 C 117.066407 -246.872881 55.289305 -173.946366 80.402311 -149.412531 C 89.930739 -140.103853 107.808208 -148.104397 120.720323 -151.378498 C 162.161042 -161.886544 209.572476 -239.867225 237.490747 -207.489418 C 266.185091 -174.211572 144.329274 -137.137234 162.791166 -97.263194 C 173.219085 -74.740949 213.356066 -94.637851 237.562962 -89.158871 C 267.079972 -82.478003 323.077622 -89.062734 324.106026 -58.816573 C 325.779229 -9.606385 232.225857 -19.42239 186.979719 -0.000001 C 168.653123 7.866887 143.804273 8.197378 131.451389 23.85491 Z " fill="url(#two-3)" stroke="undefined" stroke-width="1" stroke-opacity="1" fill-opacity="1" visibility="visible" stroke-linecap="butt" stroke-linejoin="miter" stroke-miterlimit="4"></path></g></svg>