<svg xmlns="http://www.w3.org/2000/svg" version="1.1" xmlns:xlink="http://www.w3.org/1999/xlink" viewBox="0 0 700 700" style="overflow: hidden; display: block;" width="700" height="700"><defs><linearGradient id="two-3" x1="350" y1="-350" x2="350" y2="350" spreadMethod="pad" gradientUnits="userSpaceOnUse"><stop offset="0%" stop-color="hsl(30, 100%, 50%)" stop-opacity="1"></stop><stop offset="100%" stop-color="hsl(30, 100%, 70%)" stop-opacity="1"></stop></linearGradient></defs><g id="two-0" transform="matrix(1 0 0 1 0 0)" opacity="1"><path transform="matrix(1 0 0 1 350 350)" id="two-141" d="M 124.14601 36.452557 C 110.445169 87.563757 264.526106 107.099844 235.801823 151.54063 C 206.810102 196.395182 125.349823 63.170966 83.608842 96.489747 C 52.696249 121.165016 133.936751 198.097327 98.38526 215.433669 C 65.290389 231.572064 55.483425 128.103731 19.613304 136.413528 C -47.982053 152.072903 20.854475 341.913746 -48.227193 335.427494 C -106.383571 329.967044 -20.429918 185.327546 -73.153981 160.184874 C -120.526421 137.594246 -169.668318 275.949253 -209.600543 241.89192 C -248.648586 208.588686 -133.043592 145.316603 -151.759432 97.529864 C -160.944186 74.078634 -213.218829 88.852173 -220.708149 64.805759 C -228.052203 41.225758 -200.524173 17.675372 -183.275035 0 C -167.203727 -16.468439 -125.937509 -13.432401 -123.7636 -36.340272 C -116.916915 -108.48818 -308.816813 -115.114562 -286.319208 -184.006182 C -274.35282 -220.649365 -200.207637 -172.228025 -170.165719 -196.381709 C -142.573338 -218.565967 -169.167474 -285.345681 -136.153253 -298.134038 C -100.409289 -311.979785 -72.420458 -234.562422 -34.725586 -241.521755 C 7.693727 -249.353328 6.09173 -339.055507 49.141418 -341.786076 C 82.883952 -343.926309 98.15482 -293.596533 124.27935 -272.133818 C 145.850634 -254.411841 180.393068 -247.471781 192.738715 -222.432335 C 207.379079 -192.738741 174.512321 -151.373022 190.061192 -122.144912 C 203.17047 -97.502647 249.444334 -101.968834 261.440107 -76.765742 C 272.400972 -53.736991 269.021038 -19.423458 252.492479 -0.000001 C 223.9582 33.53192 135.546053 -6.075478 124.14601 36.452557 Z " fill="url(#two-3)" stroke="undefined" stroke-width="1" stroke-opacity="1" fill-opacity="1" visibility="visible" stroke-linecap="butt" stroke-linejoin="miter" stroke-miterlimit="4"></path></g></svg>