<svg xmlns="http://www.w3.org/2000/svg" version="1.1" xmlns:xlink="http://www.w3.org/1999/xlink" viewBox="0 0 700 700" style="overflow: hidden; display: block;" width="700" height="700"><defs><linearGradient id="two-5" x1="350" y1="-350" x2="350" y2="350" spreadMethod="pad" gradientUnits="userSpaceOnUse"><stop offset="0%" stop-color="hsl(335, 77%, 60%)" stop-opacity="1"></stop><stop offset="100%" stop-color="hsl(335, 77%, 80%)" stop-opacity="1"></stop></linearGradient></defs><g id="two-0" transform="matrix(1 0 0 1 0 0)" opacity="1"><path transform="matrix(1 0 0 1 350 350)" id="two-57" d="M 278.824009 43.067012 C 278.274135 57.576632 264.411665 68.784117 257.236438 81.407411 C 250.507461 93.245624 248.656507 110.681078 236.700068 117.19767 C 214.74736 129.162507 185.472387 118.574601 161.039463 113.272628 C 135.588779 107.749799 111.484655 73.897423 87.621221 84.326969 C 81.043795 87.201642 79.764126 97.419586 79.731355 104.597692 C 79.508279 153.46113 129.306589 194.291471 132.177813 243.070989 C 133.651439 268.106547 134.798646 303.121323 113.78376 316.808007 C 98.58216 326.708583 73.354732 319.26187 59.6189 307.411259 C 16.484786 270.197232 62.465532 144.060407 5.499754 143.4811 C -27.0219 143.150374 -8.406051 209.943917 -27.293631 236.420824 C -39.080829 252.944303 -55.340018 277.207111 -75.475205 274.650228 C -91.71168 272.588426 -90.811585 242.531173 -105.389421 235.090688 C -118.983384 228.152369 -142.966281 246.707761 -151.628917 234.14214 C -172.876998 203.320653 -89.490058 156.068026 -113.461424 127.313571 C -124.390969 114.203218 -154.36924 149.399581 -164.505434 135.666632 C -176.269219 119.728553 -125.493577 97.448794 -137.784559 81.913648 C -170.46378 40.608856 -261.347631 160.111148 -293.213447 118.175635 C -306.146521 101.155669 -277.490247 76.212605 -262.134369 61.341805 C -236.615289 36.628849 -162.706056 48.114175 -166.076734 12.750462 C -170.051894 -28.955222 -256.024575 4.772368 -288.146853 -22.122338 C -302.558403 -34.188556 -323.600093 -57.645782 -313.175409 -73.28587 C -284.876089 -115.743164 -182.355363 -18.73644 -158.834615 -64.016102 C -147.600592 -85.642658 -214.012175 -99.200975 -204.844631 -121.781217 C -198.647747 -137.044536 -164.198185 -114.216516 -155.326618 -128.096919 C -141.973666 -148.988871 -183.322355 -175.513586 -177.998676 -199.729974 C -175.006929 -213.33885 -163.472344 -230.390795 -149.548946 -230.930296 C -113.589573 -232.323641 -103.251576 -142.377568 -70.058119 -156.277654 C -42.397524 -167.8608 -72.541615 -217.496595 -67.911111 -247.124896 C -62.808506 -279.773937 -67.677689 -325.727041 -39.618742 -343.182469 C -24.710598 -352.456804 -1.814587 -343.831134 12.806759 -334.110934 C 33.160427 -320.579915 34.725507 -288.273461 52.694251 -271.705887 C 63.049705 -262.157932 84.105299 -264.306916 90.40248 -251.707535 C 108.369049 -215.760081 40.617822 -157.175805 71.458691 -131.410367 C 81.939427 -122.654428 98.24764 -139.071991 110.54231 -145.017861 C 152.088742 -165.110278 195.759624 -252.42995 228.591431 -219.997194 C 257.503371 -191.43666 140.689824 -148.644186 163.84018 -115.242609 C 185.806717 -83.549061 263.320056 -173.34102 278.479552 -137.884012 C 298.870991 -90.189856 134.529196 -96.979565 149.920675 -47.445278 C 164.336923 -1.049573 276.813713 -90.024679 297.136277 -45.895517 C 305.399527 -27.952392 261.265533 -19.587629 258.703931 -0.000001 C 256.669815 15.554137 279.41806 27.391684 278.824009 43.067012 Z " fill="url(#two-5)" stroke="undefined" stroke-width="1" stroke-opacity="1" fill-opacity="1" visibility="visible" stroke-linecap="butt" stroke-linejoin="miter" stroke-miterlimit="4"></path></g></svg>