<svg xmlns="http://www.w3.org/2000/svg" version="1.1" xmlns:xlink="http://www.w3.org/1999/xlink" viewBox="0 0 700 700" style="overflow: hidden; display: block;" width="700" height="700"><defs><linearGradient id="two-5" x1="350" y1="-350" x2="350" y2="350" spreadMethod="pad" gradientUnits="userSpaceOnUse"><stop offset="0%" stop-color="hsl(335, 77%, 60%)" stop-opacity="1"></stop><stop offset="100%" stop-color="hsl(335, 77%, 80%)" stop-opacity="1"></stop></linearGradient></defs><g id="two-0" transform="matrix(1 0 0 1 0 0)" opacity="1"><path transform="matrix(1 0 0 1 350 350)" id="two-47" d="M 128.349273 19.824762 C 118.464387 85.037073 324.907084 34.054476 311.983766 98.733254 C 304.868538 134.343635 238.055253 103.860107 201.947728 99.99069 C 172.118457 96.794075 131.532037 55.867407 113.328672 79.713607 C 99.56686 97.741423 161.913813 124.359044 145.778919 140.298142 C 127.817993 158.041113 99.245084 88.564621 78.783892 103.354737 C 61.5601 115.804739 95.301713 145.926183 90.625578 166.657688 C 88.082513 177.932292 81.532023 193.844708 70.030702 194.986412 C 52.520968 196.724555 47.252981 152.600271 30.809898 158.864212 C -25.022957 180.133566 72.734066 338.033924 12.995576 339.03691 C -56.880469 340.2101 54.471014 137.53543 -14.904819 129.107393 C -76.489917 121.625803 -21.534399 304.451524 -83.571347 304.111654 C -106.061792 303.98844 -87.315982 249.753406 -107.768595 240.397876 C -127.807968 231.231372 -148.576857 261.064024 -170.501097 263.284158 C -189.294544 265.187257 -219.078787 271.938673 -227.116601 254.844551 C -249.218721 207.839684 -115.842246 162.658807 -145.685685 120.146099 C -162.107273 96.753145 -202.63076 142.89438 -230.619637 137.104593 C -246.469673 133.825851 -257.59218 118.332243 -270.959973 109.206679 C -287.540211 97.88813 -314.132256 93.922446 -321.409809 75.212793 C -327.744686 58.926642 -321.151472 36.314838 -309.031865 23.725774 C -277.500372 -9.027103 -186.988095 30.67072 -176.398411 -13.542905 C -172.177992 -31.163828 -220.888431 -33.081127 -216.793593 -50.731656 C -212.718477 -68.297172 -172.594044 -50.195964 -164.404214 -66.260851 C -158.069193 -78.687407 -172.874046 -93.34416 -178.488606 -106.112421 C -189.500783 -131.155584 -214.264088 -152.129315 -217.419079 -179.304194 C -219.383067 -196.220609 -215.048964 -216.023424 -204.268163 -229.20662 C -194.409939 -241.261651 -177.501951 -250.308485 -161.931399 -250.051015 C -137.420307 -249.645708 -118.983523 -224.603761 -96.406368 -215.05232 C -83.351647 -209.529419 -69.201183 -205.579983 -55.497907 -201.95391 C -44.744373 -199.108379 -32.487893 -190.086771 -22.512922 -195.009728 C -0.167441 -206.037915 -5.434084 -243.626341 10.08569 -263.121932 C 22.807963 -279.103365 40.143139 -310.626626 58.507844 -301.682351 C 100.639137 -281.162887 24.78295 -193.376413 57.349977 -159.679484 C 64.019097 -152.77898 77.983755 -163.498018 86.420698 -158.925042 C 94.850086 -154.356161 94.955749 -140.359257 102.906413 -135.000506 C 111.416389 -129.264778 123.013732 -128.750768 133.264166 -128.2539 C 152.994277 -127.297525 173.099092 -138.138534 192.679029 -135.527402 C 208.381115 -133.433411 222.611533 -123.741996 237.132948 -117.412004 C 255.221065 -109.527261 290.089921 -111.895843 291.353496 -92.20441 C 293.826038 -53.672553 186.122278 -67.815026 192.430211 -29.722672 C 199.308423 11.813487 319.238793 -42.012691 316.500896 -0.000001 C 312.440805 62.30159 137.7061 -41.903856 128.349273 19.824762 Z " fill="url(#two-5)" stroke="undefined" stroke-width="1" stroke-opacity="1" fill-opacity="1" visibility="visible" stroke-linecap="butt" stroke-linejoin="miter" stroke-miterlimit="4"></path></g></svg>