<svg xmlns="http://www.w3.org/2000/svg" version="1.1" xmlns:xlink="http://www.w3.org/1999/xlink" viewBox="0 0 700 700" style="overflow: hidden; display: block;" width="700" height="700"><defs><linearGradient id="two-5" x1="350" y1="-350" x2="350" y2="350" spreadMethod="pad" gradientUnits="userSpaceOnUse"><stop offset="0%" stop-color="hsl(206, 75%, 49%)" stop-opacity="1"></stop><stop offset="100%" stop-color="hsl(331, 90%, 56%)" stop-opacity="1"></stop></linearGradient></defs><g id="two-0" transform="matrix(1 0 0 1 0 0)" opacity="1"><path transform="matrix(1 0 0 1 350 350)" id="two-61" d="M 200.725453 31.003949 C 195.775038 60.90941 281.483492 57.327163 273.806636 86.651368 C 267.302933 111.494338 207.820308 74.245355 196.735193 97.4098 C 184.985345 121.963332 257.986361 148.57611 239.103947 168.181959 C 200.013738 208.769817 129.322187 46.26909 89.399402 86.038297 C 60.40297 114.923183 157.062598 154.94705 148.641872 194.999779 C 146.067657 207.243895 130.939509 215.840649 118.651517 218.196541 C 103.50702 221.10009 87.527405 198.40555 73.736715 205.305061 C 55.088693 214.634704 72.121607 264.452212 51.270157 264.362868 C 7.703643 264.176194 47.356212 152.26577 5.388214 140.571192 C -4.283751 137.876054 -8.484971 160.999744 -18.415884 159.520672 C -28.875336 157.962882 -26.019001 133.604874 -36.582836 133.122979 C -62.395735 131.94546 -68.586179 174.852039 -86.662425 193.316644 C -113.590324 220.823073 -143.73139 292.634698 -174.726135 269.808373 C -216.94205 238.718128 -75.965187 163.515499 -110.821861 124.351752 C -125.426868 107.942074 -156.068425 155.888109 -174.462677 143.878309 C -184.909557 137.057432 -169.238015 114.282819 -178.84802 106.326093 C -205.172812 84.530149 -269.202284 145.345994 -282.150225 113.716756 C -294.824354 82.756388 -198.672953 80.821635 -204.986136 47.968604 C -210.093779 21.389057 -258.666314 34.180564 -282.684427 21.702962 C -306.710504 9.221223 -338.700471 -1.69135 -348.868729 -26.784231 C -355.50075 -43.150506 -353.721112 -68.554378 -339.893824 -79.53822 C -296.569949 -113.952965 -227.585933 -64.062586 -172.527912 -69.534996 C -159.45589 -70.83427 -145.438304 -73.161371 -134.036388 -79.685342 C -127.18454 -83.605847 -117.87322 -88.684256 -117.056911 -96.536124 C -111.620931 -148.823419 -208.535344 -177.18479 -204.626182 -229.608349 C -203.432339 -245.618303 -188.180038 -264.926026 -172.151231 -265.832262 C -133.297116 -268.028994 -120.819319 -174.75157 -84.035759 -187.457376 C -61.399968 -195.276248 -94.927555 -256.108924 -71.139389 -258.872427 C -24.93869 -264.239623 -55.410252 -152.571026 -14.962613 -129.608014 C -9.167081 -126.317763 -0.21281 -128.12193 5.066906 -132.18869 C 32.355438 -153.207987 27.152694 -199.055524 44.388358 -228.878446 C 63.240023 -261.497539 80.503376 -335.072602 114.549826 -318.940964 C 171.377523 -292.015281 25.331331 -174.828858 72.38184 -133.108009 C 82.859656 -123.817071 100.25078 -154.442337 112.344729 -147.382412 C 122.081791 -141.698335 108.655305 -119.784103 118.156914 -113.714628 C 138.456791 -100.747394 164.554056 -132.740491 188.642049 -132.687854 C 206.121134 -132.649658 223.877318 -126.064345 239.727853 -118.696823 C 255.213051 -111.499115 268.926215 -99.908489 282.351285 -89.355487 C 297.534462 -77.420495 323.404265 -69.490694 325.980985 -50.350855 C 328.620434 -30.745063 309.07578 -12.127679 293.446538 -0.000001 C 267.957074 19.778822 205.994456 -0.826103 200.725453 31.003949 Z " fill="url(#two-5)" stroke="undefined" stroke-width="1" stroke-opacity="1" fill-opacity="1" visibility="visible" stroke-linecap="butt" stroke-linejoin="miter" stroke-miterlimit="4"></path></g></svg>