<svg xmlns="http://www.w3.org/2000/svg" version="1.1" xmlns:xlink="http://www.w3.org/1999/xlink" viewBox="0 0 700 700" style="overflow: hidden; display: block;" width="700" height="700"><defs><linearGradient id="two-3" x1="350" y1="-350" x2="350" y2="350" spreadMethod="pad" gradientUnits="userSpaceOnUse"><stop offset="0%" stop-color="hsl(50, 98%, 60%)" stop-opacity="1"></stop><stop offset="100%" stop-color="hsl(50, 98%, 80%)" stop-opacity="1"></stop></linearGradient></defs><g id="two-0" transform="matrix(1 0 0 1 0 0)" opacity="1"><path transform="matrix(1 0 0 1 350 350)" id="two-31" d="M 310.406248 56.330429 C 313.226473 79.018582 274.592958 87.823389 252.851959 94.896927 C 225.123806 103.918416 179.354942 73.193379 164.558137 98.318909 C 149.30042 124.227086 227.233022 158.741344 205.626729 179.650663 C 175.739895 208.573408 128.244751 94.132052 95.047354 119.185612 C 68.27364 139.391318 139.197716 192.756218 117.48429 218.322395 C 107.324759 230.284595 83.331918 207.173789 70.01133 215.472719 C 47.641343 229.409564 54.875546 267.980272 39.167205 289.143919 C 25.352075 307.756866 8.131596 332.288742 -14.994124 333.870099 C -35.756721 335.289863 -59.10489 319.208437 -68.634507 300.707422 C -93.722261 252.001493 -12.107768 165.394204 -57.720581 135.044011 C -72.094583 125.479731 -91.009532 169.097371 -104.546305 158.380881 C -121.82618 144.701136 -72.705958 107.907634 -89.267425 93.366405 C -110.884723 74.386077 -154.557684 147.838336 -170.836369 124.119887 C -189.193551 97.373018 -90.055424 79.339824 -105.400752 50.758326 C -131.294106 2.530565 -254.77387 127.098112 -269.583719 74.400378 C -283.967033 23.220377 -130.022206 63.413413 -121.512042 10.936281 C -119.576473 -0.999228 -144.322015 -2.211026 -148.902139 -13.401436 C -152.308236 -21.723398 -150.161956 -32.145198 -147.068074 -40.58821 C -143.920482 -49.177794 -135.115484 -54.935811 -130.621217 -62.903863 C -126.304386 -70.557333 -127.606565 -82.414098 -120.449258 -87.511508 C -111.07442 -94.188236 -91.607558 -79.727781 -85.632787 -89.564873 C -62.30339 -127.975286 -176.372549 -185.933589 -141.19283 -213.897995 C -117.362365 -232.840864 -97.29762 -151.401368 -67.63185 -158.232579 C -52.197413 -161.786705 -51.766052 -186.311565 -45.880545 -201.015798 C -32.187529 -235.226154 -37.059488 -279.37521 -13.831454 -307.981251 C 0.366065 -325.465934 25.913951 -350.496699 46.134088 -340.575521 C 85.90401 -321.06208 32.799047 -235.468619 67.603922 -208.063479 C 79.632584 -198.592186 98.689273 -213.629519 113.863191 -211.593265 C 128.69747 -209.602589 146.03811 -206.969239 156.577289 -196.341711 C 167.813025 -185.011788 168.59891 -166.15364 172.456152 -150.670403 C 175.975501 -136.543493 167.809813 -116.127577 179.210469 -107.073272 C 213.550397 -79.800788 272.831169 -137.247443 311.725321 -116.992471 C 330.292353 -107.323287 351.483754 -82.040581 344.112852 -62.447276 C 320.716286 -0.25461 153.603895 -66.441556 152.683693 -0.000001 C 151.918311 55.263071 303.588647 1.48416 310.406248 56.330429 Z " fill="url(#two-3)" stroke="undefined" stroke-width="1" stroke-opacity="1" fill-opacity="1" visibility="visible" stroke-linecap="butt" stroke-linejoin="miter" stroke-miterlimit="4"></path></g></svg>